/* XPM */
static char * height_xpm[] = {
"24 24 6 1",
" 	g None",
".	g #232323",
"+	g #222222",
"@	g #E5E5E5",
"#	g #E6E6E6",
"$	g #000000",
"                        ",
"                        ",
"  .+.++.+++++++.....++  ",
"  .@#@@@@@@@@@@@@#@@@.  ",
"  +@@#@@@#@@@@@#@@@#@+  ",
"  +#@#@@@#@$@@##@@@@@.  ",
"  .@#@@@@@$$$#@@@@#@#.  ",
"  +@@@@@@$$$$$@@##@##+  ",
"  +@@#@#@@@$@@#@@@@@@+  ",
"  .@#@@@##@$@@#@@@@##+  ",
"  .@@@@@@@@@@#@##@@@@.  ",
"  +@@#@@#@#@@#@@@@@@@.  ",
"  +@@@@@@@@@@#@@@@##@.  ",
"  +#@#@@@@#@@@@#@@@@@+  ",
"  +@##@@@@@$#@@@@@@@@.  ",
"  .#@@#@@##$#@@@@@@@@.  ",
"  .@@@@@@$$$$$@#@@@@@.  ",
"  .@@@@@@#$$$@@@@#@@@.  ",
"  .@#@@@@@#$@##@@@#@@.  ",
"  +####@@@@@@#@@#@#@@+  ",
"  +@@#@@@@@@@@#@##@@@+  ",
"  ++...++++.+..+++...+  ",
"                        ",
"                        "};
