/* XPM */
static char * page_xpm[] = {
"16 16 26 1",
" 	c None",
".	c #000000",
"+	c #FFFFFF",
"@	c #B5B5B5",
"#	c #505050",
"$	c #3C3C3C",
"%	c #A1A1A1",
"&	c #F1F1F1",
"*	c #E3E3E3",
"=	c #909090",
"-	c #787878",
";	c #95A5BB",
">	c #97A5B8",
",	c #8291A8",
"'	c #899BB5",
")	c #8E9EB3",
"!	c #7889A0",
"~	c #2D2D2D",
"{	c #7B8EA7",
"]	c #778AA5",
"^	c #677B95",
"/	c #131313",
"(	c #1E1E1E",
"_	c #AA891A",
":	c #BEA13C",
"<	c #B49320",
"                ",
"   ........     ",
"   .+++++@+.    ",
"   .+#$#+%&*.   ",
"   .+++++=--.   ",
"   .+;>,++++.   ",
"   .+')!+~$+.   ",
"   .+{]^++++.   ",
"   .++++++++.   ",
"   .+~~~~$#+.   ",
"   .++++++++.   ",
"   .+/($+_:+.   ",
"   .+++++:<+.   ",
"   .++++++++.   ",
"   ..........   ",
"                "};
