/* XPM */
static char * page_xpm[] = {
"16 16 55 1",
" 	c None",
".	c #000000",
"+	c #FEFEFE",
"@	c #FDFDFD",
"#	c #E0E0E0",
"$	c #C1C1C1",
"%	c #F1F1F1",
"&	c #C3C3C3",
"*	c #FBFBFB",
"=	c #A8A8A8",
"-	c #B8C7DE",
";	c #BFCCE0",
">	c #C9D3E3",
",	c #ADADAD",
"'	c #767676",
")	c #5D5D5D",
"!	c #404040",
"~	c #F0F0F0",
"{	c #E2E2E2",
"]	c #858585",
"^	c #4B4B49",
"/	c #161616",
"(	c #C7D2E2",
"_	c #BECBDF",
":	c #D5DCE6",
"<	c #EFEFEF",
"[	c #EEEEEE",
"}	c #C5C5C5",
"|	c #ECECEC",
"1	c #C4C4C4",
"2	c #C0CDE0",
"3	c #BDCBDF",
"4	c #BBC9DE",
"5	c #EBEBEB",
"6	c #EDEDED",
"7	c #EAEAEA",
"8	c #BDC9DC",
"9	c #BAC7DB",
"0	c #C3CEDE",
"a	c #E8E8E8",
"b	c #C0C0C0",
"c	c #E9E9E9",
"d	c #E7E7E7",
"e	c #BFBFBF",
"f	c #B9C6DA",
"g	c #E5E5E5",
"h	c #BEBEBE",
"i	c #E6E6E6",
"j	c #E4E4E4",
"k	c #BDBDBD",
"l	c #E3E3E3",
"m	c #BBBBBB",
"n	c #C2C2C2",
"o	c #BCBCBC",
"p	c #A0A0A0",
"  .........     ",
" .++++++@#$.    ",
" .+%%%%%%&*=.   ",
" .+%-;;>%,')!.  ",
" .+%%%%%~{]^/.  ",
" .+%(___:<[[}.  ",
" .+<<<[[[[[|1.  ",
" .@[233433(5&.  ",
" .@6|||55777$.  ",
" .@58999990ab.  ",
" .@77ccaaadde.  ",
" .@afffffffgh.  ",
" .@ddiiiggjjk.  ",
" .@igggjjlllm.  ",
" .nkkkoommmmp.  ",
"  ...........   "};
