/* XPM */
static char * proj_xpm[] = {
"16 16 85 1",
" 	c None",
".	c #000000",
"+	c #242424",
"@	c #181818",
"#	c #C0A443",
"$	c #0E0E0E",
"%	c #202020",
"&	c #222222",
"*	c #191919",
"=	c #131313",
"-	c #0D0D0D",
";	c #0A0A0A",
">	c #040404",
",	c #BEA242",
"'	c #BDA242",
")	c #BCA041",
"!	c #070707",
"~	c #D7C78B",
"{	c #D9CA92",
"]	c #D7C68B",
"^	c #D3BF7D",
"/	c #CEB86E",
"(	c #C8B05C",
"_	c #C3A94E",
":	c #C0A545",
"<	c #BBA041",
"[	c #B69C3F",
"}	c #B49A3F",
"|	c #1C1C1C",
"1	c #D6C587",
"2	c #D7C689",
"3	c #D4C281",
"4	c #D0BC76",
"5	c #CBB464",
"6	c #C6AD56",
"7	c #C2A74B",
"8	c #B59A3F",
"9	c #A9903B",
"0	c #A78F3A",
"a	c #121212",
"b	c #CDB76D",
"c	c #CCB76B",
"d	c #CAB363",
"e	c #C6AD58",
"f	c #C4AB52",
"g	c #B99E40",
"h	c #AC933C",
"i	c #9D8636",
"j	c #998335",
"k	c #020202",
"l	c #C3AA50",
"m	c #C2A84E",
"n	c #C0A549",
"o	c #C0A444",
"p	c #BEA345",
"q	c #BCA141",
"r	c #BA9F41",
"s	c #B0973D",
"t	c #9E8737",
"u	c #8F7A32",
"v	c #BCA142",
"w	c #B3993E",
"x	c #AD943C",
"y	c #A18A38",
"z	c #836F2D",
"A	c #87732F",
"B	c #B1973E",
"C	c #AD933C",
"D	c #AA913B",
"E	c #A48C39",
"F	c #9C8536",
"G	c #907B32",
"H	c #826F2D",
"I	c #7C6A2B",
"J	c #88742F",
"K	c #A68E3A",
"L	c #A38B39",
"M	c #9F8837",
"N	c #9B8536",
"O	c #9B8436",
"P	c #957F34",
"Q	c #8F7A31",
"R	c #86722E",
"S	c #85712E",
"T	c #927D33",
"                ",
"                ",
"                ",
"         ...+@. ",
"         .####$ ",
" .%&*=-;>.#,')! ",
" .~{]^/(_:#<[}. ",
" |1234567:'890. ",
" abcdef7:#ghij. ",
" klmnopqqrstuu. ",
" .v<gg[8wxyuzA. ",
" .[BCD0EyFGHIJ. ",
" .wDKLMNOPQRST. ",
" .............. ",
"                ",
"                "};
