/* XPM */
static char * proj_xpm[] = {
"16 16 94 2",
"  	c None",
". 	c #000000",
"+ 	c #242424",
"@ 	c #181818",
"# 	c #D1BC77",
"$ 	c #CBB465",
"% 	c #9D8842",
"& 	c #0E0E0E",
"* 	c #202020",
"= 	c #222222",
"- 	c #191919",
"; 	c #131313",
"> 	c #0D0D0D",
", 	c #0A0A0A",
"' 	c #040404",
") 	c #BEA242",
"! 	c #BDA242",
"~ 	c #998235",
"{ 	c #070707",
"] 	c #DFD2A4",
"^ 	c #E0D3A6",
"/ 	c #DED0A0",
"( 	c #DBCA94",
"_ 	c #D7C588",
": 	c #D2BE7A",
"< 	c #CEB86E",
"[ 	c #CBB567",
"} 	c #C4AA50",
"| 	c #BBA041",
"1 	c #B69C3F",
"2 	c #927D33",
"3 	c #1C1C1C",
"4 	c #DDCF9D",
"5 	c #D7C689",
"6 	c #D4C281",
"7 	c #D0BC76",
"8 	c #CBB464",
"9 	c #C6AD56",
"0 	c #C2A74B",
"a 	c #C0A545",
"b 	c #B59A3F",
"c 	c #A9903B",
"d 	c #88742F",
"e 	c #121212",
"f 	c #D6C487",
"g 	c #CCB76B",
"h 	c #CAB363",
"i 	c #C6AD58",
"j 	c #C4AB52",
"k 	c #C0A443",
"l 	c #B99E40",
"m 	c #AC933C",
"n 	c #9D8636",
"o 	c #7C6A2B",
"p 	c #020202",
"q 	c #CEB970",
"r 	c #C2A84E",
"s 	c #C0A549",
"t 	c #C0A444",
"u 	c #BEA345",
"v 	c #BCA141",
"w 	c #BA9F41",
"x 	c #B0973D",
"y 	c #9E8737",
"z 	c #8F7A32",
"A 	c #746328",
"B 	c #C8B264",
"C 	c #B3993E",
"D 	c #AD943C",
"E 	c #A18A38",
"F 	c #836F2D",
"G 	c #6E5D26",
"H 	c #C3AE62",
"I 	c #B1973E",
"J 	c #AD933C",
"K 	c #AA913B",
"L 	c #A78F3A",
"M 	c #A48C39",
"N 	c #9C8536",
"O 	c #907B32",
"P 	c #826F2D",
"Q 	c #6E5E26",
"R 	c #AC9955",
"S 	c #8A7630",
"T 	c #87732F",
"U 	c #84712E",
"V 	c #816E2C",
"W 	c #7E6C2C",
"X 	c #7E6B2C",
"Y 	c #79672A",
"Z 	c #746327",
"` 	c #6D5C25",
" .	c #6C5C25",
"..	c #706127",
"                                ",
"                                ",
"                                ",
"                  . . . + @ .   ",
"                  . # $ $ % &   ",
"  . * = - ; > , ' . $ ) ! ~ {   ",
"  . ] ^ / ( _ : < [ } | 1 2 .   ",
"  3 4 5 6 7 8 9 0 a ! b c d .   ",
"  e f g h i j 0 a k l m n o .   ",
"  p q r s t u v v w x y z A .   ",
"  . B | l l 1 b C D E z F G .   ",
"  . H I J K L M E N O P o Q .   ",
"  . R S T U V W X Y Z `  ....   ",
"  . . . . . . . . . . . . . .   ",
"                                ",
"                                "};
