/* XPM */
static char * proj_xpm[] = {
"16 16 32 1",
" 	c None",
".	c #000000",
"+	c #E4E5DF",
"@	c #D5D6CB",
"#	c #D6D7CA",
"$	c #A3A39D",
"%	c #F5F6F0",
"&	c #8D907B",
"*	c #92957E",
"=	c #90937D",
"-	c #979B84",
";	c #6D705F",
">	c #DFE1D6",
",	c #D8D8CB",
"'	c #E1E4CF",
")	c #DEE1C9",
"!	c #E1E3CD",
"~	c #DFE2CB",
"{	c #D4D8B8",
"]	c #D7DBBD",
"^	c #D1D5B2",
"/	c #CDD2AC",
"(	c #DBDBCF",
"_	c #DFE1CB",
":	c #BCC09D",
"<	c #DBDFC4",
"[	c #A2A688",
"}	c #BDC0A0",
"|	c #BEC29F",
"1	c #BBBF9D",
"2	c #989B80",
"3	c #6E715C",
"                ",
"                ",
"   ....         ",
"  .+@#$.        ",
" .%&*=-;.       ",
" ............   ",
" .>,')!~~{]^/.  ",
" .(//////////.  ",
" .(//////////.  ",
" ._/////////:.  ",
" .</////////:.  ",
" .//////////[.  ",
" .//}|1111123.  ",
"  ...........   ",
"                ",
"                "};
